<?xml version="1.0" encoding="utf-8"?>
<!-- Generator: Adobe Illustrator 15.0.2, SVG Export Plug-In . SVG Version: 6.00 Build 0)  -->
<!DOCTYPE svg PUBLIC "-//W3C//DTD SVG 1.1//EN" "http://www.w3.org/Graphics/SVG/1.1/DTD/svg11.dtd">
<svg version="1.1" id="Layer_1" xmlns="http://www.w3.org/2000/svg" xmlns:xlink="http://www.w3.org/1999/xlink" x="0px" y="0px"
	 width="30px" height="30px" viewBox="0 0 30 30" enable-background="new 0 0 30 30" xml:space="preserve">
<path fill="#FFFFFF" d="M11.979,3.237c0,0-5.718,2.027-3.688,7.795c2.03,5.769,4.036,11.468,4.036,11.468s1.958,5.708,7.695,3.689
	c3.042-1.095,1.92-3.922,1.92-3.922s-0.972-2.942-3.94-1.898l-1.341,0.473L12.629,9.39l1.312-0.461c0,0,2.921-1.1,1.955-3.845
	C15.896,5.083,14.898,2.21,11.979,3.237"/>
<g>
	<path fill="#9E9E9E" d="M17.536,21.467l1.341-0.473c0.949-0.334,1.692-0.258,2.268-0.003c-0.609-0.634-1.607-1.161-3.143-0.621
		l-0.758,0.268L17.536,21.467z"/>
	<path fill="#9E9E9E" d="M13.203,23.125c0,0-2.006-5.699-4.036-11.468c-2.03-5.769,3.688-7.795,3.688-7.795
		c0.947-0.333,1.689-0.253,2.263,0.004c-0.607-0.631-1.606-1.167-3.138-0.628c0,0-5.718,2.027-3.688,7.795
		c2.03,5.769,4.036,11.468,4.036,11.468s0.793,2.296,2.837,3.459C13.77,24.75,13.203,23.125,13.203,23.125z"/>
</g>
</svg>
